<svg xmlns="http://www.w3.org/2000/svg" xmlns:xlink="http://www.w3.org/1999/xlink" width="278pt" height="260pt" viewBox="0 0 278 260"><g id="graph0" class="graph" transform="scale(1 1) rotate(0) translate(4 256)"><title>%3</title><polygon fill="#fff" stroke="transparent" points="-4 4 -4 -256 274 -256 274 4 -4 4"/><g id="node1" class="node"><title>5</title><ellipse cx="135" cy="-234" fill="none" stroke="#000" rx="27" ry="18"/><text x="135" y="-229.8" fill="#000" font-family="Times,serif" font-size="14" text-anchor="middle">5</text></g><g id="node2" class="node"><title>3</title><ellipse cx="99" cy="-162" fill="none" stroke="#000" rx="27" ry="18"/><text x="99" y="-157.8" fill="#000" font-family="Times,serif" font-size="14" text-anchor="middle">3</text></g><g id="edge1" class="edge"><title>5--3</title><path fill="none" stroke="#000" d="M126.29,-216.57C120.63,-205.25 113.28,-190.56 107.63,-179.27"/></g><g id="node3" class="node"><title>7</title><ellipse cx="171" cy="-162" fill="none" stroke="#000" rx="27" ry="18"/><text x="171" y="-157.8" fill="#000" font-family="Times,serif" font-size="14" text-anchor="middle">7</text></g><g id="edge2" class="edge"><title>5--7</title><path fill="none" stroke="#000" d="M143.71,-216.57C149.37,-205.25 156.72,-190.56 162.37,-179.27"/></g><g id="node4" class="node"><title>2</title><ellipse cx="27" cy="-90" fill="none" stroke="#000" rx="27" ry="18"/><text x="27" y="-85.8" fill="#000" font-family="Times,serif" font-size="14" text-anchor="middle">2</text></g><g id="edge3" class="edge"><title>3--2</title><path fill="none" stroke="#000" d="M83.731,-146.73C71.512,-134.51 54.46,-117.46 42.247,-105.25"/></g><g id="node5" class="node"><title>4</title><ellipse cx="99" cy="-90" fill="none" stroke="#000" rx="27" ry="18"/><text x="99" y="-85.8" fill="#000" font-family="Times,serif" font-size="14" text-anchor="middle">4</text></g><g id="edge4" class="edge"><title>3--4</title><path fill="none" stroke="#000" d="M99,-143.83C99,-133 99,-119.29 99,-108.41"/></g><g id="node6" class="node"><title>8</title><ellipse cx="171" cy="-90" fill="none" stroke="#000" rx="27" ry="18"/><text x="171" y="-85.8" fill="#000" font-family="Times,serif" font-size="14" text-anchor="middle">8</text></g><g id="edge5" class="edge"><title>7--8</title><path fill="none" stroke="#000" d="M171,-143.83C171,-133 171,-119.29 171,-108.41"/></g><g id="node7" class="node"><title>9</title><ellipse cx="243" cy="-90" fill="none" stroke="#000" rx="27" ry="18"/><text x="243" y="-85.8" fill="#000" font-family="Times,serif" font-size="14" text-anchor="middle">9</text></g><g id="edge6" class="edge"><title>7--9</title><path fill="none" stroke="#000" d="M186.27,-146.73C198.49,-134.51 215.54,-117.46 227.75,-105.25"/></g><g id="node8" class="node"><title>1</title><ellipse cx="27" cy="-18" fill="none" stroke="#000" rx="27" ry="18"/><text x="27" y="-13.8" fill="#000" font-family="Times,serif" font-size="14" text-anchor="middle">1</text></g><g id="edge7" class="edge"><title>2--1</title><path fill="none" stroke="#000" d="M27,-71.831C27,-61 27,-47.288 27,-36.413"/></g><g id="node9" class="node"><title>6</title><ellipse cx="171" cy="-18" fill="none" stroke="#000" rx="27" ry="18"/><text x="171" y="-13.8" fill="#000" font-family="Times,serif" font-size="14" text-anchor="middle">6</text></g><g id="edge8" class="edge"><title>8--6</title><path fill="none" stroke="#000" d="M171,-71.831C171,-61 171,-47.288 171,-36.413"/></g><g id="node10" class="node"><title>10</title><ellipse cx="243" cy="-18" fill="none" stroke="#000" rx="27" ry="18"/><text x="243" y="-13.8" fill="#000" font-family="Times,serif" font-size="14" text-anchor="middle">10</text></g><g id="edge9" class="edge"><title>9--10</title><path fill="none" stroke="#000" d="M243,-71.831C243,-61 243,-47.288 243,-36.413"/></g></g></svg>